<svg width="31" height="42" viewBox="0 0 31 42" fill="none" xmlns="http://www.w3.org/2000/svg">
<path d="M19.6797 21.207C19.6797 21.2773 19.5742 23.3516 21.8594 24.4414C21.4375 25.7422 19.9609 28.625 18.2383 28.625C17.2539 28.625 16.6914 27.9922 15.5664 27.9922C14.4062 27.9922 13.7734 28.625 12.8945 28.625C11.207 28.6953 9.58984 25.5312 9.13281 24.2305C8.78125 23.2461 8.64062 22.2969 8.64062 21.3828C8.64062 18.2539 10.7148 16.7422 12.6836 16.707C13.6328 16.707 14.8281 17.375 15.3555 17.375C15.8477 17.375 17.2188 16.5664 18.4844 16.6719C19.7852 16.7773 20.7695 17.2695 21.4375 18.2188C20.2773 18.957 19.6797 19.9062 19.6797 21.207ZM17.7109 15.4414C17.0078 16.25 16.1641 16.707 15.25 16.6367C15.1797 15.6875 15.5312 14.8086 16.1641 14.1055C16.7266 13.4727 17.7109 12.9453 18.5547 12.875C18.5547 13.2617 18.6602 14.3164 17.7109 15.4414Z" fill="black"/>
</svg>
