<svg width="35" height="42" viewBox="0 0 35 42" fill="none" xmlns="http://www.w3.org/2000/svg">
<path d="M24.6367 17.0938C24.6367 17.2695 24.6367 17.4102 24.6367 17.5859C24.6367 22.4727 20.9453 28.0625 14.1602 28.0625C12.0508 28.0625 10.1172 27.4648 8.5 26.4102C8.78125 26.4453 9.0625 26.4805 9.37891 26.4805C11.1016 26.4805 12.6836 25.8828 13.9492 24.8984C12.332 24.8633 10.9609 23.8086 10.5039 22.332C10.75 22.3672 10.9609 22.4023 11.207 22.4023C11.5234 22.4023 11.875 22.332 12.1562 22.2617C10.4688 21.9102 9.20312 20.4336 9.20312 18.6406V18.6055C9.69531 18.8867 10.293 19.0273 10.8906 19.0625C9.87109 18.3945 9.23828 17.2695 9.23828 16.0039C9.23828 15.3008 9.41406 14.668 9.73047 14.1406C11.5586 16.3555 14.3008 17.832 17.3594 18.0078C17.2891 17.7266 17.2539 17.4453 17.2539 17.1641C17.2539 15.125 18.9062 13.4727 20.9453 13.4727C22 13.4727 22.9492 13.8945 23.6523 14.6328C24.4609 14.457 25.2695 14.1406 25.9727 13.7188C25.6914 14.5977 25.1289 15.3008 24.3555 15.7578C25.0938 15.6875 25.832 15.4766 26.4648 15.1953C25.9727 15.9336 25.3398 16.5664 24.6367 17.0938Z" fill="black"/>
</svg>
